<svg width="59" height="54" viewBox="0 0 59 54" fill="none" xmlns="http://www.w3.org/2000/svg">
<path d="M26.6857 14.3019C26.4991 13.8241 26.2111 13.3896 25.8452 13.0197C25.0667 12.2326 23.9355 11.7373 22.6764 11.7373H19.3858C17.2901 11.7373 15.5911 13.2747 15.5911 15.1712C15.5911 16.7849 16.8328 18.1809 18.5749 18.5258L23.5849 19.5174C25.5366 19.9038 26.9276 21.4688 26.9276 23.2766C26.9276 25.4012 25.0243 27.1249 22.6764 27.1249H19.8423C17.9913 27.1249 16.4166 26.0544 15.833 24.5603" stroke="#545454" stroke-width="3" stroke-linecap="round" stroke-linejoin="round"/>
<path d="M21.2598 11.7374V7.8905" stroke="#545454" stroke-width="3" stroke-linecap="round" stroke-linejoin="round"/>
<path d="M21.2598 30.9718V27.1249" stroke="#545454" stroke-width="3" stroke-linecap="round" stroke-linejoin="round"/>
<path d="M29.3672 52V31.8039C29.3672 30.5285 29.9271 29.3055 30.9236 28.4037C31.9202 27.5019 33.2718 26.9953 34.6812 26.9953C36.0905 26.9953 37.4422 27.5019 38.4387 28.4037C39.4353 29.3055 39.9952 30.5285 39.9952 31.8039V42.3828H48.4978C50.7526 42.3828 52.9152 43.1934 54.5098 44.6363C56.104 46.0789 57.0001 48.0358 57.0001 50.0766V52" stroke="#545454" stroke-width="3" stroke-linecap="round" stroke-linejoin="round"/>
<path d="M21.2632 36.8623C10.6244 36.8623 2 29.0581 2 19.4311C2 9.80418 10.6244 2 21.2632 2C31.902 2 40.5264 9.80418 40.5264 19.4311C40.5264 20.2404 40.4655 21.0368 40.3475 21.8168" stroke="#545454" stroke-width="3" stroke-linecap="round"/>
</svg>
