<svg width="59" height="58" viewBox="0 0 59 58" fill="none" xmlns="http://www.w3.org/2000/svg">
<path d="M26.6857 15.2861C26.4991 14.77 26.2111 14.3008 25.8452 13.9012C25.0667 13.0512 23.9355 12.5163 22.6764 12.5163H19.3858C17.2901 12.5163 15.5911 14.1767 15.5911 16.2249C15.5911 17.9677 16.8328 19.4754 18.5749 19.8478L23.5849 20.9188C25.5366 21.3361 26.9276 23.0263 26.9276 24.9787C26.9276 27.2733 25.0243 29.1349 22.6764 29.1349H19.8423C17.9913 29.1349 16.4166 27.9788 15.833 26.3651" stroke="#545454" stroke-width="3" stroke-linecap="round" stroke-linejoin="round"/>
<path d="M21.2598 12.5164V8.36176" stroke="#545454" stroke-width="3" stroke-linecap="round" stroke-linejoin="round"/>
<path d="M21.2598 33.2895V29.1349" stroke="#545454" stroke-width="3" stroke-linecap="round" stroke-linejoin="round"/>
<path d="M29.3672 56V34.1882C29.3672 32.8108 29.9271 31.4899 30.9236 30.516C31.9202 29.5421 33.2718 28.9949 34.6812 28.9949C36.0905 28.9949 37.4422 29.5421 38.4387 30.516C39.4353 31.4899 39.9952 32.8108 39.9952 34.1882V45.6135H48.4978C50.7526 45.6135 52.9152 46.4888 54.5098 48.0472C56.104 49.6052 57.0001 51.7187 57.0001 53.9227V56" stroke="#545454" stroke-width="3" stroke-linecap="round" stroke-linejoin="round"/>
<path d="M21.2632 39.6512C10.6244 39.6512 2 31.2227 2 20.8256C2 10.4285 10.6244 2 21.2632 2C31.902 2 40.5264 10.4285 40.5264 20.8256C40.5264 21.6997 40.4655 22.5597 40.3475 23.4021" stroke="#545454" stroke-width="3" stroke-linecap="round"/>
</svg>
