<svg width="50" height="50" viewBox="0 0 50 50" fill="none" xmlns="http://www.w3.org/2000/svg">
<path d="M35.7142 6.25H5.35707C3.38463 6.25 1.78564 7.849 1.78564 9.82143V31.25C1.78564 33.2224 3.38463 34.8214 5.35707 34.8214H35.7142C37.6867 34.8214 39.2856 33.2224 39.2856 31.25V9.82143C39.2856 7.849 37.6867 6.25 35.7142 6.25Z" stroke="#545454" stroke-width="3" stroke-linecap="round" stroke-linejoin="round"/>
<path d="M12.5 43.75H44.6429C45.59 43.75 46.4986 43.3736 47.1682 42.7039C47.8379 42.0343 48.2143 41.1257 48.2143 40.1786V22.3214" stroke="#545454" stroke-width="3" stroke-linecap="round" stroke-linejoin="round"/>
<path d="M9.01737 20.9168C8.52426 20.9168 8.12451 20.517 8.12451 20.0239C8.12451 19.5308 8.52426 19.131 9.01737 19.131" stroke="#545454" stroke-width="3" stroke-linecap="round" stroke-linejoin="round"/>
<path d="M9.01733 20.9168C9.51044 20.9168 9.91019 20.517 9.91019 20.0239C9.91019 19.5308 9.51044 19.131 9.01733 19.131" stroke="#545454" stroke-width="3" stroke-linecap="round" stroke-linejoin="round"/>
<path d="M32.0537 20.9168C31.5606 20.9168 31.1609 20.517 31.1609 20.0239C31.1609 19.5308 31.5606 19.131 32.0537 19.131" stroke="#545454" stroke-width="3" stroke-linecap="round" stroke-linejoin="round"/>
<path d="M32.0537 20.9168C32.5468 20.9168 32.9466 20.517 32.9466 20.0239C32.9466 19.5308 32.5468 19.131 32.0537 19.131" stroke="#545454" stroke-width="3" stroke-linecap="round" stroke-linejoin="round"/>
<path d="M20.5356 25C23.0011 25 24.9999 23.0013 24.9999 20.5357C24.9999 18.0702 23.0011 16.0714 20.5356 16.0714C18.07 16.0714 16.0713 18.0702 16.0713 20.5357C16.0713 23.0013 18.07 25 20.5356 25Z" stroke="#545454" stroke-width="3" stroke-linecap="round" stroke-linejoin="round"/>
</svg>
