<svg width="95" height="91" viewBox="0 0 95 91" fill="none" xmlns="http://www.w3.org/2000/svg">
<path d="M47.5 91C73.7335 91 95 70.629 95 45.5C95 20.371 73.7335 0 47.5 0C21.2665 0 0 20.371 0 45.5C0 70.629 21.2665 91 47.5 91Z" fill="#50B748"/>
<path d="M56.2015 89.8602C56.3959 90.0464 56.6657 90.1325 56.9315 90.09C58.4841 89.7888 60.0199 89.4135 61.5333 88.9653C63.0465 88.5187 64.5354 88 65.9945 87.411C67.453 86.8208 68.8798 86.1611 70.2695 85.4345C71.6618 84.7051 73.015 83.9094 74.3241 83.0503C75.6302 82.195 76.8908 81.2778 78.1013 80.3021C79.3123 79.3244 80.4715 78.2894 81.5745 77.2008C82.6772 76.111 83.7222 74.969 84.7057 73.7792C85.6902 72.5925 86.6123 71.3594 87.4683 70.0846C88.3257 68.808 89.1158 67.4911 89.8357 66.1388C90.5535 64.7874 91.2003 63.4025 91.7737 61.9892C92.3476 60.575 92.8473 59.1342 93.2709 57.6722C93.8819 55.4773 93.1099 53.1649 91.4643 51.5892L66.2985 27.4929C63.8333 25.1227 60.9036 23.2424 57.6775 21.96C54.4515 20.6776 50.9927 20.0183 47.4999 20.02C32.8319 20.02 20.8999 31.4496 20.8999 45.5C20.8999 50.7658 22.5787 55.6642 25.4464 59.7295C25.4478 59.7314 25.4485 59.7337 25.4485 59.7361C25.4485 59.7384 25.4492 59.7407 25.4506 59.7427C25.9281 60.4177 26.4358 61.0673 26.9775 61.6916C26.9791 61.6934 26.9799 61.6957 26.9799 61.698C26.9799 61.7004 26.9807 61.7026 26.9823 61.7044C27.5212 62.3331 28.1018 62.9328 28.7013 63.5071L56.2015 89.8602Z" fill="#10A711"/>
<path d="M47.4999 20.02C32.8319 20.02 20.8999 31.4496 20.8999 45.5C20.8999 59.5504 32.8319 70.98 47.4999 70.98C62.1679 70.98 74.0999 59.5504 74.0999 45.5C74.0999 31.4496 62.1679 20.02 47.4999 20.02ZM47.4999 23.66C60.1159 23.66 70.2999 33.4152 70.2999 45.5C70.2999 57.5848 60.1159 67.34 47.4999 67.34C34.8839 67.34 24.6999 57.5848 24.6999 45.5C24.6999 33.4152 34.8839 23.66 47.4999 23.66ZM60.7427 36.3435C60.0224 35.6545 58.8873 35.6549 58.1674 36.3443L44.9267 49.0248C43.1784 50.6991 40.4215 50.6989 38.6735 49.0245L36.8361 47.2645C36.1163 46.575 34.9811 46.5746 34.2608 47.2636C33.4944 47.9967 33.4941 49.2208 34.2601 49.9543L37.5225 53.078C39.9143 55.368 43.6855 55.368 46.0772 53.0779L60.7434 39.0344C61.5095 38.3009 61.5092 37.0766 60.7427 36.3435Z" fill="white"/>
</svg>
