<svg width="39" height="27" viewBox="0 0 39 27" fill="none" xmlns="http://www.w3.org/2000/svg">
<path d="M5.78571 11.5714C7.91317 11.5714 9.64286 9.84174 9.64286 7.71429C9.64286 5.58683 7.91317 3.85714 5.78571 3.85714C3.65826 3.85714 1.92857 5.58683 1.92857 7.71429C1.92857 9.84174 3.65826 11.5714 5.78571 11.5714ZM32.7857 11.5714C34.9132 11.5714 36.6429 9.84174 36.6429 7.71429C36.6429 5.58683 34.9132 3.85714 32.7857 3.85714C30.6583 3.85714 28.9286 5.58683 28.9286 7.71429C28.9286 9.84174 30.6583 11.5714 32.7857 11.5714ZM34.7143 13.5H30.8571C29.7964 13.5 28.8382 13.9279 28.1391 14.621C30.5679 15.9529 32.2915 18.3576 32.6652 21.2143H36.6429C37.7096 21.2143 38.5714 20.3525 38.5714 19.2857V17.3571C38.5714 15.2297 36.8417 13.5 34.7143 13.5ZM19.2857 13.5C23.0163 13.5 26.0357 10.4806 26.0357 6.75C26.0357 3.01942 23.0163 0 19.2857 0C15.5551 0 12.5357 3.01942 12.5357 6.75C12.5357 10.4806 15.5551 13.5 19.2857 13.5ZM23.9143 15.4286H23.4141C22.1605 16.0313 20.7683 16.3929 19.2857 16.3929C17.8031 16.3929 16.417 16.0313 15.1574 15.4286H14.6571C10.8241 15.4286 7.71429 18.5384 7.71429 22.3714V24.1071C7.71429 25.7042 9.01005 27 10.6071 27H27.9643C29.5614 27 30.8571 25.7042 30.8571 24.1071V22.3714C30.8571 18.5384 27.7473 15.4286 23.9143 15.4286ZM10.4324 14.621C9.73326 13.9279 8.775 13.5 7.71429 13.5H3.85714C1.72969 13.5 0 15.2297 0 17.3571V19.2857C0 20.3525 0.86183 21.2143 1.92857 21.2143H5.90022C6.27991 18.3576 8.00357 15.9529 10.4324 14.621Z" fill="#746BCC"/>
</svg>
