<svg width="15" height="14" viewBox="0 0 15 14" fill="none" xmlns="http://www.w3.org/2000/svg">
<path d="M2.25 12.25H3.31875L10.65 4.91875L9.58125 3.85L2.25 11.1812V12.25ZM0.75 13.75V10.5625L10.65 0.68125C10.8 0.54375 10.9656 0.4375 11.1469 0.3625C11.3281 0.2875 11.5187 0.25 11.7188 0.25C11.9188 0.25 12.1125 0.2875 12.3 0.3625C12.4875 0.4375 12.65 0.55 12.7875 0.7L13.8188 1.75C13.9688 1.8875 14.0781 2.05 14.1469 2.2375C14.2156 2.425 14.25 2.6125 14.25 2.8C14.25 3 14.2156 3.19062 14.1469 3.37187C14.0781 3.55312 13.9688 3.71875 13.8188 3.86875L3.9375 13.75H0.75ZM10.1063 4.39375L9.58125 3.85L10.65 4.91875L10.1063 4.39375Z" fill="white"/>
</svg>
