<svg width="19" height="18" viewBox="0 0 19 18" fill="none" xmlns="http://www.w3.org/2000/svg">
<path d="M8.69263 2.91312H3.04159C2.61337 2.91312 2.2027 3.07345 1.8999 3.35883C1.59711 3.64421 1.427 4.03127 1.427 4.43486V15.087C1.427 15.4906 1.59711 15.8777 1.8999 16.1631C2.2027 16.4484 2.61337 16.6088 3.04159 16.6088H14.3437C14.7719 16.6088 15.1826 16.4484 15.4854 16.1631C15.7881 15.8777 15.9583 15.4906 15.9583 15.087V9.76095M14.7473 1.77182C15.0685 1.46912 15.5041 1.29907 15.9583 1.29907C16.4124 1.29907 16.848 1.46912 17.1692 1.77182C17.4904 2.07451 17.6708 2.48505 17.6708 2.91312C17.6708 3.34119 17.4904 3.75173 17.1692 4.05442L9.49992 11.2827L6.27075 12.0436L7.07804 9.00008L14.7473 1.77182Z" stroke="white" stroke-width="2" stroke-linecap="round" stroke-linejoin="round"/>
</svg>
