<svg width="95" height="30" viewBox="0 0 95 30" fill="none" xmlns="http://www.w3.org/2000/svg">
<path d="M77.5576 1.46289C82.4095 0.588486 86.5775 0.172471 89.5156 0.804688C90.9732 1.11835 92.0817 1.68016 92.8271 2.5293C93.4916 3.2862 93.9059 4.31726 93.9844 5.71875C88.7477 5.81033 85.1949 7.30063 82.334 9.51953C79.418 11.7812 77.2181 14.8127 74.7178 17.7305C72.1993 20.6694 69.3202 23.5728 64.9697 25.75C60.618 27.9278 54.7556 29.3974 46.252 29.3975C37.6201 29.3975 31.8557 27.9274 27.7129 25.7549C23.5739 23.5843 21.0088 20.6905 18.8037 17.7559C16.6167 14.8452 14.7284 11.8008 12.0098 9.53125C9.33447 7.29805 5.86358 5.80693 0.512695 5.71777C0.586132 4.30877 0.976369 3.2736 1.59766 2.5166C2.29131 1.67147 3.32089 1.11407 4.67871 0.802734C7.42314 0.173481 11.3357 0.587223 15.9395 1.46191C20.5432 2.33661 25.6819 3.63688 30.9434 4.7373C36.1729 5.83105 41.4696 6.71387 46.252 6.71387C51.0333 6.71385 56.4542 5.83163 61.8691 4.73828C67.3114 3.63943 72.7091 2.3367 77.5576 1.46289Z" fill="white" stroke="white"/>
</svg>
