<svg width="393" height="852" viewBox="0 0 393 852" fill="none" xmlns="http://www.w3.org/2000/svg">
<g clip-path="url(#clip0_51_90)">
<rect width="393" height="852" fill="url(#paint0_linear_51_90)"/>
<ellipse cx="92" cy="138.5" rx="123" ry="113.5" fill="url(#paint1_linear_51_90)"/>
<ellipse cx="392.505" cy="352.041" rx="123" ry="113.5" transform="rotate(159 392.505 352.041)" fill="url(#paint2_linear_51_90)"/>
<path d="M278 17.5C278 53.1224 245.988 82 206.5 82C167.012 82 135 53.1224 135 17.5C135 -18.1224 167.012 -47 206.5 -47C245.988 -47 278 -18.1224 278 17.5Z" fill="url(#paint3_linear_51_90)"/>
<path d="M53.7876 372.675C72.1344 403.209 59.5682 444.449 25.7201 464.787C-8.12807 485.125 -50.4405 476.86 -68.7874 446.325C-87.1342 415.791 -74.568 374.551 -40.7199 354.213C-6.87173 333.875 35.4407 342.141 53.7876 372.675Z" fill="url(#paint4_linear_51_90)"/>
<path d="M107 271C107 295.301 87.7482 315 64 315C40.2518 315 21 295.301 21 271C21 246.699 40.2518 227 64 227C87.7482 227 107 246.699 107 271Z" fill="url(#paint5_linear_51_90)"/>
<path d="M375 470C375 494.301 355.748 514 332 514C308.252 514 289 494.301 289 470C289 445.699 308.252 426 332 426C355.748 426 375 445.699 375 470Z" fill="url(#paint6_linear_51_90)"/>
<path d="M465 669.5C465 705.122 432.988 734 393.5 734C354.012 734 322 705.122 322 669.5C322 633.878 354.012 605 393.5 605C432.988 605 465 633.878 465 669.5Z" fill="url(#paint7_linear_51_90)"/>
<path d="M46.4138 694.484C58.8873 712.977 53.5913 738.361 34.5848 751.181C15.5784 764.001 -9.9412 759.402 -22.4147 740.909C-34.8882 722.417 -29.5922 697.033 -10.5857 684.213C8.42073 671.393 33.9403 675.991 46.4138 694.484Z" fill="url(#paint8_linear_51_90)"/>
<path d="M415.414 69.4841C427.887 87.9768 422.591 113.361 403.585 126.181C384.578 139.001 359.059 134.402 346.585 115.909C334.112 97.4167 339.408 72.0327 358.414 59.2127C377.421 46.3927 402.94 50.9913 415.414 69.4841Z" fill="url(#paint9_linear_51_90)"/>
</g>
<defs>
<linearGradient id="paint0_linear_51_90" x1="197" y1="225.956" x2="194.851" y2="851.994" gradientUnits="userSpaceOnUse">
<stop stop-color="#7833FB"/>
<stop offset="1" stop-color="#9D6DF6"/>
</linearGradient>
<linearGradient id="paint1_linear_51_90" x1="27" y1="236.5" x2="215" y2="-53" gradientUnits="userSpaceOnUse">
<stop stop-color="#5519C4"/>
<stop offset="1" stop-color="#B48BFF"/>
</linearGradient>
<linearGradient id="paint2_linear_51_90" x1="327.505" y1="450.041" x2="515.505" y2="160.541" gradientUnits="userSpaceOnUse">
<stop stop-color="#5519C4"/>
<stop offset="1" stop-color="#B48BFF"/>
</linearGradient>
<linearGradient id="paint3_linear_51_90" x1="168.715" y1="73.1916" x2="274.55" y2="-93.5161" gradientUnits="userSpaceOnUse">
<stop stop-color="#5519C4"/>
<stop offset="1" stop-color="#B48BFF"/>
</linearGradient>
<linearGradient id="paint4_linear_51_90" x1="-11.2043" y1="476.698" x2="-6.34708" y2="279.292" gradientUnits="userSpaceOnUse">
<stop stop-color="#5519C4"/>
<stop offset="1" stop-color="#B48BFF"/>
</linearGradient>
<linearGradient id="paint5_linear_51_90" x1="41.2764" y1="308.991" x2="116.94" y2="203.92" gradientUnits="userSpaceOnUse">
<stop stop-color="#5519C4"/>
<stop offset="1" stop-color="#B48BFF"/>
</linearGradient>
<linearGradient id="paint6_linear_51_90" x1="309.276" y1="507.991" x2="384.94" y2="402.92" gradientUnits="userSpaceOnUse">
<stop stop-color="#5519C4"/>
<stop offset="1" stop-color="#B48BFF"/>
</linearGradient>
<linearGradient id="paint7_linear_51_90" x1="355.715" y1="725.192" x2="461.55" y2="558.484" gradientUnits="userSpaceOnUse">
<stop stop-color="#5519C4"/>
<stop offset="1" stop-color="#B48BFF"/>
</linearGradient>
<linearGradient id="paint8_linear_51_90" x1="13.3141" y1="758.875" x2="14.159" y2="638.03" gradientUnits="userSpaceOnUse">
<stop stop-color="#5519C4"/>
<stop offset="1" stop-color="#B48BFF"/>
</linearGradient>
<linearGradient id="paint9_linear_51_90" x1="382.314" y1="133.875" x2="383.159" y2="13.0298" gradientUnits="userSpaceOnUse">
<stop stop-color="#5519C4"/>
<stop offset="1" stop-color="#B48BFF"/>
</linearGradient>
<clipPath id="clip0_51_90">
<rect width="393" height="852" fill="white"/>
</clipPath>
</defs>
</svg>
