<svg width="31" height="29" viewBox="0 0 31 29" fill="none" xmlns="http://www.w3.org/2000/svg">
<path d="M29.2777 8.72426L18.9445 1.10638C17.9972 0.393896 16.7709 0 15.5001 0C14.2292 0 13.0029 0.393896 12.0556 1.10638L1.72237 8.72426C1.17534 9.13568 0.738819 9.64037 0.441862 10.2047C0.144904 10.7691 -0.00567048 11.3802 0.000163255 11.9973V24.6552C0.000163255 25.8075 0.544503 26.9126 1.51343 27.7274C2.48237 28.5422 3.79652 29 5.16679 29H25.8333C27.2036 29 28.5177 28.5422 29.4867 27.7274C30.4556 26.9126 30.9999 25.8075 30.9999 24.6552V11.9829C31.0033 11.3682 30.8516 10.7599 30.5547 10.1981C30.2578 9.63641 29.8226 9.13406 29.2777 8.72426ZM18.9445 26.1035H12.0556V18.8621C12.0556 18.478 12.2371 18.1097 12.5601 17.8381C12.883 17.5665 13.3211 17.4139 13.7778 17.4139H17.2223C17.679 17.4139 18.1171 17.5665 18.4401 17.8381C18.763 18.1097 18.9445 18.478 18.9445 18.8621V26.1035ZM27.5555 24.6552C27.5555 25.0393 27.3741 25.4077 27.0511 25.6793C26.7281 25.9509 26.2901 26.1035 25.8333 26.1035H22.3889V18.8621C22.3889 17.7098 21.8446 16.6047 20.8756 15.7899C19.9067 14.9751 18.5925 14.5173 17.2223 14.5173H13.7778C12.4076 14.5173 11.0934 14.9751 10.1245 15.7899C9.15555 16.6047 8.61121 17.7098 8.61121 18.8621V26.1035H5.16679C4.71003 26.1035 4.27198 25.9509 3.94901 25.6793C3.62603 25.4077 3.44458 25.0393 3.44458 24.6552V11.9829C3.44489 11.7772 3.49727 11.574 3.59823 11.3867C3.6992 11.1994 3.84643 11.0324 4.03014 10.8967L14.3634 3.29326C14.6777 3.06108 15.0817 2.93303 15.5001 2.93303C15.9184 2.93303 16.3224 3.06108 16.6367 3.29326L26.97 10.8967C27.1537 11.0324 27.3009 11.1994 27.4019 11.3867C27.5028 11.574 27.5552 11.7772 27.5555 11.9829V24.6552Z" fill="white"/>
</svg>
