<svg width="40" height="41" viewBox="0 0 40 41" fill="none" xmlns="http://www.w3.org/2000/svg">
<path d="M20.4636 6.23283C20.3395 6.10471 20.1744 6.0332 20.0027 6.0332C19.831 6.0332 19.666 6.10471 19.5419 6.23283L4.20028 22.0543C4.13512 22.1216 4.08329 22.2024 4.04791 22.292C4.01253 22.3815 3.99434 22.4779 3.99444 22.5752L3.99194 37.4242C3.99194 38.1877 4.27289 38.9199 4.77299 39.4598C5.27309 39.9996 5.95136 40.3029 6.6586 40.3029H14.6669C15.0205 40.3029 15.3597 40.1513 15.6097 39.8814C15.8598 39.6114 16.0002 39.2453 16.0002 38.8636V26.6288C16.0002 26.438 16.0705 26.2549 16.1955 26.1199C16.3205 25.985 16.4901 25.9092 16.6669 25.9092H23.3336C23.5104 25.9092 23.6799 25.985 23.805 26.1199C23.93 26.2549 24.0002 26.438 24.0002 26.6288V38.8636C24.0002 39.2453 24.1407 39.6114 24.3908 39.8814C24.6408 40.1513 24.9799 40.3029 25.3336 40.3029H33.3385C34.0458 40.3029 34.7241 39.9996 35.2242 39.4598C35.7242 38.9199 36.0052 38.1877 36.0052 37.4242V22.5752C36.0053 22.4779 35.9871 22.3815 35.9517 22.292C35.9164 22.2024 35.8645 22.1216 35.7994 22.0543L20.4636 6.23283Z" fill="white"/>
<path d="M39.5758 19.0853L33.3424 12.6476V2.87876C33.3424 2.49701 33.202 2.1309 32.9519 1.86096C32.7019 1.59103 32.3627 1.43938 32.0091 1.43938H28.0091C27.6555 1.43938 27.3164 1.59103 27.0663 1.86096C26.8163 2.1309 26.6758 2.49701 26.6758 2.87876V5.75752L21.8491 0.775466C21.3975 0.282478 20.7258 0 20 0C19.2767 0 18.6067 0.282478 18.155 0.776366L0.430031 19.0835C-0.0883015 19.6232 -0.153301 20.5112 0.318364 21.0959C0.436806 21.2435 0.581831 21.3635 0.744612 21.4487C0.907393 21.5339 1.08453 21.5824 1.26523 21.5913C1.44593 21.6003 1.62643 21.5694 1.79573 21.5006C1.96503 21.4318 2.1196 21.3266 2.25003 21.1913L19.5417 3.35375C19.6657 3.22563 19.8308 3.15412 20.0025 3.15412C20.1742 3.15412 20.3392 3.22563 20.4633 3.35375L37.7566 21.1913C38.0113 21.455 38.3526 21.5989 38.7054 21.5915C39.0583 21.5841 39.3941 21.4259 39.6391 21.1517C40.1508 20.5795 40.1083 19.6349 39.5758 19.0853Z" fill="white"/>
</svg>
