<svg width="35" height="31" viewBox="0 0 35 31" fill="none" xmlns="http://www.w3.org/2000/svg">
<path d="M13.0024 7.24332V5.17188" stroke="white" stroke-width="3" stroke-linecap="round" stroke-linejoin="round"/>
<path d="M16.1022 8.62425C15.9956 8.36695 15.8311 8.13301 15.622 7.93378C15.1773 7.50998 14.5311 7.24329 13.8118 7.24329H11.932C10.7347 7.24329 9.76416 8.07113 9.76416 9.09233C9.76416 9.96125 10.4735 10.7129 11.4687 10.8987L14.3308 11.4326C15.4457 11.6407 16.2404 12.4834 16.2404 13.4568C16.2404 14.6009 15.1531 15.529 13.8118 15.529H12.1928C11.1353 15.529 10.2357 14.9526 9.90235 14.1481" stroke="white" stroke-width="3" stroke-linecap="round" stroke-linejoin="round"/>
<path d="M13.0024 17.6004V15.529" stroke="white" stroke-width="3" stroke-linecap="round" stroke-linejoin="round"/>
<path d="M17.634 28.9236V18.0485C17.634 17.3618 17.9539 16.7032 18.5232 16.2176C19.0925 15.732 19.8646 15.4592 20.6697 15.4592C21.4749 15.4592 22.247 15.732 22.8163 16.2176C23.3856 16.7032 23.7055 17.3618 23.7055 18.0485V23.745H28.5627C29.8508 23.745 31.0863 24.1814 31.9972 24.9584C32.9079 25.7352 33.4199 26.7889 33.4199 27.8878V28.9236" stroke="white" stroke-width="3" stroke-linecap="round" stroke-linejoin="round"/>
<path d="M13.0045 20.7723C6.92687 20.7723 2 16.57 2 11.3862C2 6.20233 6.92687 2 13.0045 2C19.0821 2 24.0089 6.20233 24.0089 11.3862C24.0089 11.8219 23.9741 12.2508 23.9067 12.6708" stroke="white" stroke-width="3" stroke-linecap="round"/>
</svg>
