<svg width="14" height="14" viewBox="0 0 14 14" fill="none" xmlns="http://www.w3.org/2000/svg">
<g clip-path="url(#clip0_1222_33865)">
<path d="M0.502563 0.502441L13.4976 13.4975" stroke="black" stroke-linecap="round" stroke-linejoin="round"/>
<path d="M7.44936 7.44931C8.33754 7.24539 8.99997 6.45005 8.99997 5.5C8.99997 4.39543 8.10454 3.5 6.99997 3.5C6.04992 3.5 5.25458 4.16243 5.05066 5.05061" stroke="black" stroke-linecap="round" stroke-linejoin="round"/>
<path d="M2.67847 2.67835C3.67211 1.35414 5.23822 0.5 7.00003 0.5C10.0031 0.5 12.4375 2.98161 12.4375 6.04283C12.4375 7.79509 11.5995 9.34495 10.5814 10.5813" stroke="black" stroke-linecap="round" stroke-linejoin="round"/>
<path d="M1.77592 4.5C1.63697 4.98976 1.5625 5.50743 1.5625 6.04283C1.5625 9.68208 5.17747 12.4483 6.51236 13.3457C6.80973 13.5456 7.19027 13.5456 7.48764 13.3457C7.90864 13.0626 8.55644 12.5937 9.24609 11.9702" stroke="black" stroke-linecap="round" stroke-linejoin="round"/>
</g>
<defs>
<clipPath id="clip0_1222_33865">
<rect width="14" height="14" fill="white"/>
</clipPath>
</defs>
</svg>
