<svg width="158" height="35" viewBox="0 0 158 35" fill="none" xmlns="http://www.w3.org/2000/svg">
<g filter="url(#filter0_d_10_216)">
<path d="M14.4236 16.856L11.7596 19.7V26H4.70359V0.799998H11.7596V11.276L21.5156 0.799998H29.3636L19.0676 11.96L29.9036 26H21.6236L14.4236 16.856ZM43.5678 26.504C40.9038 26.504 38.5038 25.94 36.3678 24.812C34.2558 23.684 32.5878 22.124 31.3638 20.132C30.1638 18.14 29.5638 15.896 29.5638 13.4C29.5638 10.904 30.1638 8.66 31.3638 6.668C32.5878 4.676 34.2558 3.116 36.3678 1.988C38.5038 0.859998 40.9038 0.295998 43.5678 0.295998C46.2318 0.295998 48.6198 0.859998 50.7318 1.988C52.8678 3.116 54.5358 4.676 55.7358 6.668C56.9598 8.66 57.5718 10.904 57.5718 13.4C57.5718 15.896 56.9598 18.14 55.7358 20.132C54.5358 22.124 52.8678 23.684 50.7318 24.812C48.6198 25.94 46.2318 26.504 43.5678 26.504ZM43.5678 20.6C44.8398 20.6 45.9918 20.3 47.0238 19.7C48.0558 19.1 48.8718 18.26 49.4718 17.18C50.0718 16.076 50.3718 14.816 50.3718 13.4C50.3718 11.984 50.0718 10.736 49.4718 9.656C48.8718 8.552 48.0558 7.7 47.0238 7.1C45.9918 6.5 44.8398 6.2 43.5678 6.2C42.2958 6.2 41.1438 6.5 40.1118 7.1C39.0798 7.7 38.2638 8.552 37.6638 9.656C37.0638 10.736 36.7638 11.984 36.7638 13.4C36.7638 14.816 37.0638 16.076 37.6638 17.18C38.2638 18.26 39.0798 19.1 40.1118 19.7C41.1438 20.3 42.2958 20.6 43.5678 20.6ZM71.0252 16.856L68.3612 19.7V26H61.3052V0.799998H68.3612V11.276L78.1172 0.799998H85.9652L75.6692 11.96L86.5052 26H78.2252L71.0252 16.856ZM98.4195 6.308V20.492H102.487V26H87.1875V20.492H91.2915V6.308H87.1875V0.799998H102.487V6.308H98.4195ZM125.708 8.72C123.596 7.544 121.448 6.764 119.264 6.38V26H112.136V6.38C109.904 6.764 107.756 7.544 105.692 8.72L103.316 3.536C105.068 2.48 107 1.676 109.112 1.124C111.248 0.571998 113.444 0.295998 115.7 0.295998C117.956 0.295998 120.14 0.571998 122.252 1.124C124.388 1.676 126.332 2.48 128.084 3.536L125.708 8.72ZM141.526 0.295998C143.902 0.295998 145.99 0.775999 147.79 1.736C149.614 2.672 151.018 4.052 152.002 5.876C153.01 7.676 153.514 9.848 153.514 12.392V26H146.386V20.42H136.558V26H129.538V12.392C129.538 9.848 130.03 7.676 131.014 5.876C132.022 4.052 133.426 2.672 135.226 1.736C137.05 0.775999 139.15 0.295998 141.526 0.295998ZM146.386 14.912V11.78C146.386 9.932 145.942 8.54 145.054 7.604C144.166 6.668 142.978 6.2 141.49 6.2C139.978 6.2 138.778 6.668 137.89 7.604C137.002 8.54 136.558 9.932 136.558 11.78V14.912H146.386Z" fill="white"/>
</g>
<defs>
<filter id="filter0_d_10_216" x="0.703613" y="0.29599" width="156.811" height="34.208" filterUnits="userSpaceOnUse" color-interpolation-filters="sRGB">
<feFlood flood-opacity="0" result="BackgroundImageFix"/>
<feColorMatrix in="SourceAlpha" type="matrix" values="0 0 0 0 0 0 0 0 0 0 0 0 0 0 0 0 0 0 127 0" result="hardAlpha"/>
<feOffset dy="4"/>
<feGaussianBlur stdDeviation="2"/>
<feComposite in2="hardAlpha" operator="out"/>
<feColorMatrix type="matrix" values="0 0 0 0 0.345605 0 0 0 0 0.199464 0 0 0 0 0.619231 0 0 0 1 0"/>
<feBlend mode="normal" in2="BackgroundImageFix" result="effect1_dropShadow_10_216"/>
<feBlend mode="normal" in="SourceGraphic" in2="effect1_dropShadow_10_216" result="shape"/>
</filter>
</defs>
</svg>
