<svg width="69" height="71" viewBox="0 0 69 71" fill="none" xmlns="http://www.w3.org/2000/svg">
<g clip-path="url(#clip0_10_209)">
<path d="M34.5 37.7188C24.9888 37.7188 17.25 29.7557 17.25 19.9688C17.25 10.1818 24.9888 2.21875 34.5 2.21875C44.0112 2.21875 51.75 10.1818 51.75 19.9688C51.75 29.7557 44.0112 37.7188 34.5 37.7188Z" fill="#FFCC00"/>
<path d="M62.5312 28.8438C61.3875 28.8438 60.2906 29.3113 59.4819 30.1435C58.6731 30.9757 58.2188 32.1044 58.2188 33.2812V42.1551C58.2194 41.5725 58.1081 40.9955 57.8913 40.4572C57.6744 39.919 57.3563 39.4302 56.9552 39.0189C56.555 38.6066 56.0797 38.2795 55.5565 38.0564C55.0334 37.8332 54.4726 37.7183 53.9062 37.7183C53.3399 37.7183 52.7791 37.8332 52.256 38.0564C51.7328 38.2795 51.2575 38.6066 50.8573 39.0189L44.3886 45.6752C43.9875 46.0869 43.6694 46.5761 43.4525 47.1147C43.2357 47.6533 43.1244 48.2306 43.125 48.8136V59.9062H40.9688V68.7812H58.2188V59.9062H56.0625L65.5802 50.1116C66.3889 49.2795 66.8434 48.151 66.8438 46.9743V33.2812C66.8438 32.1044 66.3894 30.9757 65.5806 30.1435C64.7719 29.3113 63.675 28.8438 62.5312 28.8438ZM25.875 48.8136C25.8756 48.2306 25.7643 47.6533 25.5475 47.1147C25.3306 46.5761 25.0125 46.0869 24.6114 45.6752L18.1427 39.0189C17.7425 38.6066 17.2672 38.2795 16.744 38.0564C16.2209 37.8332 15.6601 37.7183 15.0938 37.7183C14.5274 37.7183 13.9666 37.8332 13.4435 38.0564C12.9203 38.2795 12.445 38.6066 12.0448 39.0189C11.6437 39.4302 11.3256 39.919 11.1087 40.4572C10.8919 40.9955 10.7806 41.5725 10.7812 42.1551V33.2812C10.7812 32.1044 10.3269 30.9757 9.51815 30.1435C8.7094 29.3113 7.6125 28.8438 6.46875 28.8438C5.325 28.8438 4.2281 29.3113 3.41935 30.1435C2.6106 30.9757 2.15625 32.1044 2.15625 33.2812L2.15625 46.9743C2.15649 48.1511 2.61101 49.2796 3.41981 50.1116L12.9375 59.9062H10.7812V68.7812H28.0312L28.0312 59.9062H25.875V48.8136Z" fill="#FFDCA0"/>
<path d="M40.9688 59.9062H58.2188V68.7812H40.9688V59.9062ZM10.7812 59.9062H28.0312V68.7812H10.7812V59.9062Z" fill="#B993FF"/>
<path d="M62.5313 26.625C58.9637 26.625 56.0625 29.6103 56.0625 33.2813V35.8816C54.911 35.4635 53.6681 35.3888 52.4771 35.6664C51.2862 35.944 50.1958 36.5624 49.3318 37.4503L42.863 44.1065C42.2603 44.7231 41.7824 45.4566 41.4573 46.2647C41.1321 47.0727 40.966 47.9391 40.9688 48.8136V53.25C40.9688 53.8385 41.1959 54.4028 41.6003 54.8189C42.0047 55.235 42.5531 55.4688 43.125 55.4688C43.6969 55.4688 44.2453 55.235 44.6497 54.8189C45.0541 54.4028 45.2812 53.8385 45.2812 53.25V48.8125C45.2812 48.2201 45.5055 47.6632 45.912 47.2438L52.3807 40.5876C52.7859 40.1722 53.3345 39.939 53.9065 39.9393C54.4784 39.9395 55.0269 40.173 55.4318 40.5887C55.8383 41.0069 56.0625 41.5638 56.0625 42.1562C56.0632 42.4476 56.0078 42.7362 55.8995 43.0055C55.7913 43.2747 55.6323 43.5192 55.4318 43.7249C55.0275 44.1411 54.8004 44.7055 54.8005 45.294C54.8006 45.8824 55.0279 46.4467 55.4323 46.8628C55.8368 47.2788 56.3853 47.5125 56.9572 47.5124C57.5291 47.5123 58.0775 47.2784 58.4818 46.8622C59.084 46.2455 59.5613 45.512 59.8863 44.7043C60.2112 43.8965 60.3773 43.0305 60.375 42.1562V33.2813C60.375 32.0576 61.3421 31.0625 62.5313 31.0625C63.7204 31.0625 64.6875 32.0576 64.6875 33.2813V46.9743C64.6875 47.5578 64.4579 48.1302 64.0568 48.5429L55.1698 57.6875H40.9688C40.3969 57.6875 39.8484 57.9213 39.444 58.3374C39.0397 58.7535 38.8125 59.3178 38.8125 59.9063V68.7813C38.8125 69.3697 39.0397 69.9341 39.444 70.3501C39.8484 70.7662 40.3969 71 40.9687 71H58.2187C58.7906 71 59.3391 70.7662 59.7435 70.3501C60.1478 69.9341 60.375 69.3697 60.375 68.7813V59.9063C60.375 59.5313 60.2758 59.1829 60.1163 58.8723L67.1057 51.6802C67.7082 51.0637 68.1858 50.3303 68.5109 49.5225C68.8361 48.7147 69.0023 47.8486 69 46.9743V33.2813C69 29.6103 66.0988 26.625 62.5313 26.625ZM56.0625 66.5625H43.125V62.125H56.0625V66.5625ZM28.0312 57.6875H13.8302L4.9432 48.5429C4.54059 48.1258 4.31398 47.5622 4.3125 46.9743L4.3125 33.2813C4.3125 32.0576 5.27958 31.0625 6.46875 31.0625C7.65792 31.0625 8.625 32.0576 8.625 33.2813V42.1562C8.625 43.9346 9.29775 45.6053 10.5193 46.8622C10.9408 47.296 11.4917 47.5123 12.0437 47.5123C12.5957 47.5123 13.1477 47.296 13.5693 46.8622C13.9735 46.4461 14.2006 45.8819 14.2006 45.2936C14.2006 44.7052 13.9735 44.141 13.5693 43.7249C13.3684 43.5194 13.2091 43.275 13.1006 43.0057C12.9922 42.7365 12.9367 42.4477 12.9375 42.1562C12.9375 41.5638 13.1618 41.0069 13.5682 40.5876C13.9732 40.1724 14.5215 39.9393 15.0932 39.9393C15.6649 39.9393 16.2133 40.1724 16.6182 40.5876L23.087 47.2438C23.4945 47.6632 23.7187 48.2201 23.7187 48.8136V53.25C23.7187 53.8385 23.9459 54.4028 24.3503 54.8189C24.7547 55.235 25.3031 55.4688 25.875 55.4688C26.4469 55.4688 26.9953 55.235 27.3997 54.8189C27.8041 54.4028 28.0312 53.8385 28.0312 53.25V48.8147C28.0342 47.94 27.8682 47.0734 27.543 46.2651C27.2179 45.4569 26.7399 44.7232 26.137 44.1065L19.6682 37.4503C18.8043 36.5623 17.7139 35.9438 16.5229 35.6662C15.332 35.3886 14.089 35.4633 12.9375 35.8816V33.2813C12.9375 29.6103 10.0363 26.625 6.46875 26.625C2.90123 26.625 0 29.6103 0 33.2813L0 46.9743C0 48.7526 0.67275 50.4233 1.89427 51.6802L8.88375 58.8723C8.72419 59.1829 8.625 59.5313 8.625 59.9063V68.7813C8.625 69.3697 8.85218 69.9341 9.25655 70.3501C9.66093 70.7662 10.2094 71 10.7812 71H28.0312C28.6031 71 29.1516 70.7662 29.5559 70.3501C29.9603 69.9341 30.1875 69.3697 30.1875 68.7813V59.9063C30.1875 59.3178 29.9603 58.7535 29.5559 58.3374C29.1516 57.9213 28.6031 57.6875 28.0312 57.6875ZM25.875 66.5625H12.9375V62.125H25.875V66.5625ZM36.6562 26.625L30.1875 26.625C29.6156 26.625 29.0672 26.8588 28.6628 27.2749C28.2584 27.691 28.0312 28.2553 28.0312 28.8438C28.0312 29.4322 28.2584 29.9965 28.6628 30.4126C29.0672 30.8287 29.6156 31.0625 30.1875 31.0625L32.3438 31.0625C32.3438 31.651 32.5709 32.2153 32.9753 32.6314C33.3797 33.0475 33.9281 33.2813 34.5 33.2813C35.0719 33.2813 35.6203 33.0475 36.0247 32.6314C36.4291 32.2153 36.6562 31.651 36.6562 31.0625C40.2238 31.0625 43.125 28.0772 43.125 24.4063C43.125 20.7353 40.2238 17.75 36.6562 17.75H32.3438C31.1546 17.75 30.1875 16.7549 30.1875 15.5313C30.1875 14.3076 31.1546 13.3125 32.3438 13.3125H38.8125C39.3844 13.3125 39.9328 13.0787 40.3372 12.6626C40.7416 12.2465 40.9688 11.6822 40.9688 11.0938C40.9688 10.5053 40.7416 9.94095 40.3372 9.52486C39.9328 9.10876 39.3844 8.875 38.8125 8.875H36.6562C36.6562 8.28655 36.4291 7.7222 36.0247 7.30611C35.6203 6.89001 35.0719 6.65625 34.5 6.65625C33.9281 6.65625 33.3797 6.89001 32.9753 7.30611C32.5709 7.7222 32.3438 8.28655 32.3438 8.875C28.7762 8.875 25.875 11.8603 25.875 15.5313C25.875 19.2022 28.7762 22.1875 32.3438 22.1875H36.6562C37.8454 22.1875 38.8125 23.1826 38.8125 24.4063C38.8125 25.6299 37.8454 26.625 36.6562 26.625ZM47.4375 11.0938C47.9981 11.0938 48.5588 10.8608 48.9577 10.4392C49.3673 10.0287 49.5938 9.46297 49.5938 8.875C49.5938 8.28703 49.3673 7.72125 48.9577 7.29969C48.1598 6.47875 46.7152 6.47875 45.9066 7.31078C45.5077 7.72125 45.2812 8.28703 45.2812 8.875C45.2812 9.46297 45.5077 10.0287 45.9173 10.4392C46.3163 10.8608 46.8769 11.0938 47.4375 11.0938Z" fill="#402E7B"/>
<path d="M53.9062 19.9688C53.9062 18.3313 53.6895 16.6506 53.2637 14.9699C53.1156 14.4046 52.7564 13.9225 52.2643 13.6286C51.7723 13.3347 51.1872 13.2528 50.6368 13.4008C50.0863 13.5488 49.615 13.9146 49.3255 14.4186C49.036 14.9226 48.9518 15.5239 49.0913 16.0915C49.4245 17.405 49.5938 18.7096 49.5938 19.9688C49.5938 28.5331 42.8231 35.5 34.5 35.5C26.1769 35.5 19.4062 28.5331 19.4062 19.9688C19.4062 11.4044 26.1769 4.4375 34.5 4.4375C36.4385 4.4375 38.3414 4.82467 40.1515 5.58681C40.4145 5.7029 40.6973 5.76396 40.9834 5.76644C41.2696 5.76892 41.5534 5.71278 41.8182 5.60127C42.083 5.48976 42.3237 5.32513 42.526 5.11696C42.7284 4.9088 42.8885 4.66126 42.997 4.38879C43.1054 4.11632 43.1601 3.82435 43.1578 3.52992C43.1555 3.23548 43.0963 2.94446 42.9836 2.67382C42.8708 2.40317 42.7069 2.15832 42.5013 1.95354C42.2957 1.74875 42.0525 1.58812 41.786 1.48102C39.4746 0.502527 36.9993 -0.000617078 34.5 5.67963e-07C23.7996 5.67963e-07 15.0938 8.9582 15.0937 19.9688C15.0937 30.9793 23.7996 39.9375 34.5 39.9375C45.2004 39.9375 53.9062 30.9793 53.9062 19.9688Z" fill="#402E7B"/>
</g>
<defs>
<clipPath id="clip0_10_209">
<rect width="69" height="71" fill="white"/>
</clipPath>
</defs>
</svg>
