<svg width="34" height="29" viewBox="0 0 34 29" fill="none" xmlns="http://www.w3.org/2000/svg">
<path d="M26.7773 7.8642C26.5811 11.0415 24.5608 13.4891 22.3578 13.4891C20.1547 13.4891 18.131 11.0423 17.9382 7.8642C17.7373 4.55876 19.704 2.23926 22.3578 2.23926C25.0115 2.23926 26.9782 4.61892 26.7773 7.8642Z" stroke="white" stroke-width="3" stroke-linecap="round" stroke-linejoin="round"/>
<path d="M22.3578 18.4893C17.9938 18.4893 13.7972 21.0181 12.7459 25.9431C12.6066 26.5946 12.9568 27.2392 13.5307 27.2392H31.1855C31.7594 27.2392 32.1076 26.5946 31.9703 25.9431C30.919 20.9392 26.7224 18.4893 22.3578 18.4893Z" stroke="white" stroke-width="3" stroke-miterlimit="10"/>
<path d="M13.2508 9.26528C13.0941 11.8028 11.4615 13.8012 9.70175 13.8012C7.94196 13.8012 6.30672 11.8035 6.1527 9.26528C5.99266 6.62547 7.5817 4.73877 9.70175 4.73877C11.8218 4.73877 13.4108 6.6739 13.2508 9.26528Z" stroke="white" stroke-width="3" stroke-linecap="round" stroke-linejoin="round"/>
<path d="M13.6525 18.645C12.4438 17.9989 11.1126 17.7505 9.70167 17.7505C6.21958 17.7505 2.86472 19.77 2.02434 23.7035C1.91385 24.2239 2.19375 24.7387 2.65178 24.7387H10.1704" stroke="white" stroke-width="3" stroke-miterlimit="10" stroke-linecap="round"/>
</svg>
