<svg width="31" height="31" viewBox="0 0 31 31" fill="none" xmlns="http://www.w3.org/2000/svg">
<path d="M15.7143 28.9286C23.7143 28.9286 29.4286 26.3639 29.4286 20.6556C29.4286 14.4508 26 10.3143 19.1429 7.21198L21.84 4.06824C21.977 3.86199 22.0513 3.62661 22.0554 3.38597C22.0595 3.14533 21.9932 2.90801 21.8633 2.69803C21.7333 2.48805 21.5443 2.31289 21.3155 2.19031C21.0866 2.06772 20.826 2.00207 20.56 2H10.8686C10.6026 2.00207 10.342 2.06772 10.1131 2.19031C9.88423 2.31289 9.69525 2.48805 9.5653 2.69803C9.43534 2.90801 9.36905 3.14533 9.37314 3.38597C9.37723 3.62661 9.45154 3.86199 9.58857 4.06824L12.2857 7.23266C5.42857 10.3557 2 14.4922 2 20.6969C2 26.3639 7.71429 28.9286 15.7143 28.9286Z" stroke="white" stroke-width="3" stroke-linecap="round" stroke-linejoin="round"/>
<path d="M18.8749 15.0618C18.7662 14.7831 18.5984 14.5297 18.3853 14.3138C17.9319 13.8547 17.273 13.5658 16.5396 13.5658H14.623C13.4022 13.5658 12.4126 14.4626 12.4126 15.5689C12.4126 16.5102 13.1359 17.3246 14.1506 17.5258L17.0688 18.1043C18.2056 18.3296 19.0158 19.2426 19.0158 20.2972C19.0158 21.5365 17.9072 22.5421 16.5396 22.5421H14.8888C13.8107 22.5421 12.8934 21.9176 12.5535 21.046" stroke="white" stroke-width="3" stroke-linecap="round" stroke-linejoin="round"/>
<path d="M15.7144 13.5655V11.3214" stroke="white" stroke-width="3" stroke-linecap="round" stroke-linejoin="round"/>
<path d="M15.7144 24.7859V22.5417" stroke="white" stroke-width="3" stroke-linecap="round" stroke-linejoin="round"/>
</svg>
