<svg width="31" height="31" viewBox="0 0 31 31" fill="none" xmlns="http://www.w3.org/2000/svg">
<path d="M24.51 13.1613C27.5421 13.1613 30.0002 10.4389 30.0002 7.08064C30.0002 3.7224 27.5421 1 24.51 1C21.4778 1 19.0198 3.7224 19.0198 7.08064C19.0198 10.4389 21.4778 13.1613 24.51 13.1613Z" fill="#FF3F42" stroke="white" stroke-width="2" stroke-linecap="round" stroke-linejoin="round"/>
<path d="M22.7148 19.242V22.972C22.7148 23.9233 23.056 24.8357 23.6634 25.5084C24.2707 26.1809 25.298 26.5589 26.1569 26.5589H2C2.85894 26.5589 3.88617 26.1809 4.49354 25.5084C5.10089 24.8357 5.44211 23.9233 5.44211 22.972L5.44209 14.2136C5.44209 11.6768 6.35199 9.24382 7.97162 7.45001C9.59125 5.65619 11.7879 4.64844 14.0784 4.64844" stroke="white" stroke-width="3" stroke-linecap="round" stroke-linejoin="round"/>
<path d="M11.8823 30H16.2745" stroke="white" stroke-width="2" stroke-linecap="round" stroke-linejoin="round"/>
</svg>
