<svg width="23" height="21" viewBox="0 0 23 21" fill="none" xmlns="http://www.w3.org/2000/svg">
<path d="M21.7351 9.36945C22.0075 9.67953 22.1583 10.0824 22.1583 10.5001C22.1583 10.9178 22.0075 11.3206 21.7351 11.6307C20.0101 13.5376 16.0836 17.2502 11.5001 17.2502C6.91649 17.2502 2.99006 13.5376 1.26506 11.6307C0.992609 11.3206 0.841797 10.9178 0.841797 10.5001C0.841797 10.0824 0.992609 9.67953 1.26506 9.36945C2.99006 7.46255 6.91649 3.75 11.5001 3.75C16.0836 3.75 20.0101 7.46255 21.7351 9.36945Z" stroke="black" stroke-linecap="round" stroke-linejoin="round"/>
<path d="M11.5001 13.5C13.3147 13.5 14.7858 12.1569 14.7858 10.5C14.7858 8.84314 13.3147 7.5 11.5001 7.5C9.68542 7.5 8.21436 8.84314 8.21436 10.5C8.21436 12.1569 9.68542 13.5 11.5001 13.5Z" stroke="black" stroke-linecap="round" stroke-linejoin="round"/>
</svg>
