<svg width="34" height="33" viewBox="0 0 34 33" fill="none" xmlns="http://www.w3.org/2000/svg">
<path d="M17 26.8848V31.5001" stroke="white" stroke-width="3" stroke-linecap="round" stroke-linejoin="round"/>
<path d="M22.7693 24.5767V29.192" stroke="white" stroke-width="3" stroke-linecap="round" stroke-linejoin="round"/>
<path d="M11.2307 24.5767V29.192" stroke="white" stroke-width="3" stroke-linecap="round" stroke-linejoin="round"/>
<path d="M29.6923 1.5H4.30769C3.03319 1.5 2 2.53318 2 3.80768V17.6538C2 18.9282 3.03319 19.9614 4.30769 19.9614H29.6923C30.9668 19.9614 32 18.9282 32 17.6538V3.80768C32 2.53318 30.9668 1.5 29.6923 1.5Z" stroke="white" stroke-width="3" stroke-linecap="round" stroke-linejoin="round"/>
<path d="M17.0001 14.7693C19.2305 14.7693 21.0386 12.9612 21.0386 10.7308C21.0386 8.50045 19.2305 6.69238 17.0001 6.69238C14.7697 6.69238 12.9617 8.50045 12.9617 10.7308C12.9617 12.9612 14.7697 14.7693 17.0001 14.7693Z" stroke="white" stroke-width="3" stroke-linecap="round" stroke-linejoin="round"/>
<path d="M7.24977 11.3076C6.93115 11.3076 6.67285 11.0493 6.67285 10.7307C6.67285 10.4121 6.93115 10.1538 7.24977 10.1538" stroke="white" stroke-width="3" stroke-linecap="round" stroke-linejoin="round"/>
<path d="M7.25 11.3076C7.56862 11.3076 7.82692 11.0493 7.82692 10.7307C7.82692 10.4121 7.56862 10.1538 7.25 10.1538" stroke="white" stroke-width="3" stroke-linecap="round" stroke-linejoin="round"/>
<path d="M26.7503 11.3076C26.4316 11.3076 26.1733 11.0493 26.1733 10.7307C26.1733 10.4121 26.4316 10.1538 26.7503 10.1538" stroke="white" stroke-width="3" stroke-linecap="round" stroke-linejoin="round"/>
<path d="M26.7502 11.3076C27.0689 11.3076 27.3272 11.0493 27.3272 10.7307C27.3272 10.4121 27.0689 10.1538 26.7502 10.1538" stroke="white" stroke-width="3" stroke-linecap="round" stroke-linejoin="round"/>
</svg>
