<svg width="40" height="40" viewBox="0 0 40 40" fill="none" xmlns="http://www.w3.org/2000/svg">
<path d="M19.9998 22.6667C21.5348 22.6667 23.049 22.824 24.5427 23.1393L25.1814 23.2849C26.8778 23.6957 28.5526 24.3124 30.2068 25.1384H30.2078C30.7674 25.4279 31.2293 25.8285 31.5994 26.3532L31.7517 26.5856C32.1395 27.2171 32.3337 27.9037 32.3337 28.6667V32.3337H7.66675V28.6667C7.66675 27.999 7.8151 27.3899 8.11206 26.8249L8.2478 26.5856C8.59199 26.0251 9.02728 25.5908 9.55933 25.2692L9.79272 25.1384C11.2399 24.4157 12.703 23.8535 14.1824 23.4489L14.8191 23.2849C16.5195 22.8731 18.2457 22.6667 19.9998 22.6667ZM19.9998 23.9997C18.3631 23.9997 16.7413 24.1976 15.1365 24.5915C13.5321 24.9853 11.9484 25.5742 10.3865 26.3552L10.3669 26.3649L10.3474 26.3757C9.94275 26.6005 9.61621 26.9187 9.37573 27.3122C9.12291 27.726 8.99976 28.1855 8.99976 28.6667V30.9997H30.9998V28.6667C30.9998 28.2456 30.9056 27.8413 30.7126 27.4694L30.6238 27.3122C30.3833 26.9186 30.0569 26.6005 29.6521 26.3757L29.6335 26.3649L29.614 26.3552L29.0271 26.072C27.8515 25.5222 26.6641 25.0797 25.4646 24.7477L24.863 24.5915C23.2583 24.1976 21.6364 23.9997 19.9998 23.9997ZM19.9998 7.66669C21.4677 7.66669 22.7162 8.14636 23.7888 9.1286L24.0017 9.33173C25.1212 10.4512 25.6667 11.7677 25.6667 13.3337C25.6667 14.8995 25.121 16.2153 24.0017 17.3347C22.8822 18.4542 21.5658 18.9997 19.9998 18.9997C18.4339 18.9996 17.1182 18.4541 15.9988 17.3347C14.8793 16.2152 14.3338 14.8995 14.3337 13.3337C14.3337 11.8656 14.8133 10.6173 15.7957 9.54462L15.9988 9.33173C17.1182 8.2124 18.434 7.66676 19.9998 7.66669ZM19.9998 8.99969C18.8898 8.99977 17.9079 9.38104 17.0984 10.1198L16.9392 10.2722C16.1004 11.111 15.6667 12.1497 15.6667 13.3337C15.6668 14.4435 16.0473 15.4256 16.7859 16.235L16.9392 16.3942C17.7779 17.233 18.8159 17.6666 19.9998 17.6667C21.1097 17.6667 22.0925 17.2863 22.9021 16.5475L23.0613 16.3942C23.8999 15.5555 24.3337 14.5175 24.3337 13.3337C24.3337 12.2235 23.9526 11.241 23.2136 10.4313L23.0613 10.2722C22.2225 9.43334 21.1837 8.99969 19.9998 8.99969Z" fill="white" stroke="white" stroke-width="2"/>
</svg>
