<svg width="46" height="46" viewBox="0 0 46 46" fill="none" xmlns="http://www.w3.org/2000/svg">
<g filter="url(#filter0_d_79_27)">
<path d="M20.8071 2.36344C11.6535 3.65259 5.00247 11.8208 6.19322 20.2932C6.62252 23.3476 8.02799 26.227 10.2182 28.5203L8.376 35.8624L17.5916 32.955C20.0438 33.6747 22.6489 33.8419 25.1813 33.4876C34.344 32.2058 41.0034 24.046 39.812 15.5684C38.6219 7.10047 29.9655 1.07121 20.8071 2.36344Z" fill="#34C759" stroke="white" stroke-width="2.5" stroke-linecap="round" stroke-linejoin="round"/>
<path d="M24.8837 24.6581C27.3474 25.6907 29.5796 24.3727 31.0702 23.0001C32.0999 22.052 31.8484 20.5379 30.7395 19.7143L28.5527 18.0903C27.919 18.8675 26.5463 19.401 25.5208 19.2615C23.3166 18.9618 22.2829 18.0635 21.4155 17.1242C20.4193 16.0455 21.1037 14.1291 21.7374 13.3519L19.3423 11.8425C18.3325 11.2061 16.9436 11.27 16.2778 12.2463C14.9605 14.1779 14.357 16.9141 15.7372 18.4084C18.2148 21.0909 21.4069 23.2012 24.8837 24.6581Z" fill="#34C759" stroke="white" stroke-width="2.5" stroke-linecap="round" stroke-linejoin="round"/>
</g>
<defs>
<filter id="filter0_d_79_27" x="0.804199" y="0.939636" width="44.3967" height="44.1728" filterUnits="userSpaceOnUse" color-interpolation-filters="sRGB">
<feFlood flood-opacity="0" result="BackgroundImageFix"/>
<feColorMatrix in="SourceAlpha" type="matrix" values="0 0 0 0 0 0 0 0 0 0 0 0 0 0 0 0 0 0 127 0" result="hardAlpha"/>
<feOffset dy="4"/>
<feGaussianBlur stdDeviation="2"/>
<feComposite in2="hardAlpha" operator="out"/>
<feColorMatrix type="matrix" values="0 0 0 0 0 0 0 0 0 0 0 0 0 0 0 0 0 0 0.5 0"/>
<feBlend mode="normal" in2="BackgroundImageFix" result="effect1_dropShadow_79_27"/>
<feBlend mode="normal" in="SourceGraphic" in2="effect1_dropShadow_79_27" result="shape"/>
</filter>
</defs>
</svg>
