<svg width="23" height="25" viewBox="0 0 23 25" fill="none" xmlns="http://www.w3.org/2000/svg">
<path d="M18.8514 18.2444V22.0815C18.8514 22.5903 18.6957 23.0783 18.4187 23.4381C18.1418 23.7978 17.766 24 17.3742 24H3.34096C2.94918 24 2.57345 23.7978 2.29643 23.4381C2.0194 23.0783 1.86377 22.5903 1.86377 22.0815V7.69257C1.86377 4.51387 3.84785 1.93701 6.29533 1.93701H15.897V6.73331" stroke="white" stroke-width="2" stroke-linecap="round" stroke-linejoin="round"/>
<path d="M20.3284 12.4889H15.1583C14.7504 12.4889 14.4197 12.9184 14.4197 13.4482V17.2852C14.4197 17.8149 14.7504 18.2445 15.1583 18.2445H20.3284C20.7363 18.2445 21.067 17.8149 21.067 17.2852V13.4482C21.067 12.9184 20.7363 12.4889 20.3284 12.4889Z" stroke="white" stroke-width="2" stroke-linecap="round" stroke-linejoin="round"/>
<path d="M18.8515 12.4889V8.65183C18.8515 8.143 18.6958 7.65502 18.4188 7.29522C18.1419 6.93544 17.7661 6.73331 17.3743 6.73331H15.8971H6.29541" stroke="white" stroke-width="2" stroke-linecap="round" stroke-linejoin="round"/>
</svg>
